# File created by Blade
# Date/Time:  Tue Sep 30 19:11:10 2014
#---------------------------------------------------------
:version 1.10
:name HOM
:units
  mass 1.0
  length 1.000000
  angle deg
:documentation
     Acclaim Skeleton File
:root
   axis xyz
   order TX TY TZ RX RY RZ
   position 0.000000 0.000000 0.000000
   orientation 0 0 0
:bonedata
   begin
      id 1
      name Spine_dum
      direction 0.000000 1.000000 0.000000
      length 7.508948
      axis 0.0 0.0 0.0 xyz
   end
   begin
      id 2
      name LeftUpLeg_dum
      direction 1.000000 0.000000 0.000000
      length 3.000560
      axis 0.0 0.0 0.0 xyz
   end
   begin
      id 3
      name RightUpLeg_dum
      direction -1.000000 0.000000 0.000000
      length 3.000560
      axis 0.0 0.0 0.0 xyz
   end
   begin
      id 4
      name Spine
      direction 0.000000 1.000000 0.000000
      length 0.000000
      axis 0.0 0.0 0.0 xyz
      dof rx ry rz
   end
   begin
      id 5
      name Spine_dum1
      direction 0.000000 1.000000 0.000000
      length 13.861154
      axis 0.0 0.0 0.0 xyz
   end
   begin
      id 6
      name Spine_dum2
      direction 0.000000 1.000000 0.000000
      length 8.204781
      axis 0.0 0.0 0.0 xyz
   end
   begin
      id 7
      name Spine_dum3
      direction 0.000000 1.000000 0.000000
      length 8.204781
      axis 0.0 0.0 0.0 xyz
   end
   begin
      id 8
      name Head
      direction 0.000000 1.000000 0.000000
      length 4.527550
      axis 0.0 0.0 0.0 xyz
      dof rx ry rz
   end
   begin
      id 9
      name LeftShoulder
      direction 1.000000 0.000000 0.000000
      length 6.635956
      axis 0.0 0.0 -90.0 xyz
      dof rx ry rz
   end
   begin
      id 10
      name LeftArm
      direction 1.000000 0.000000 0.000000
      length 10.274218
      axis 0.0 0.0 -90.0 xyz
      dof rx ry rz
   end
   begin
      id 11
      name LeftForeArm
      direction 1.000000 0.000000 0.000000
      length 8.522147
      axis 0.0 0.0 -90.0 xyz
      dof ry rz rx
   end
   begin
      id 12
      name LeftHand
      direction 0.000000 0.000000 0.000000
      length 0.000000
      axis 0.0 0.0 -90.0 xyz
      dof rx ry rz
   end
   begin
      id 13
      name LeftHand_dum1
      direction 0.000000 0.000000 0.000000
      length 0.000000
      axis 0.0 0.0 -90.0 xyz
   end
   begin
      id 14
      name LeftHand_dum2
      direction 1.000000 0.000000 0.000000
      length 3.937000
      axis 0.0 0.0 -90.0 xyz
   end
   begin
      id 15
      name LeftHandThumb1
      direction 0.000000 0.000000 1.000000
      length 3.937000
      axis 0.0 0.0 -90.0 xyz
      dof rx rz ry
   end
   begin
      id 16
      name RightShoulder
      direction -1.000000 0.000000 0.000000
      length 6.635956
      axis 0.0 0.0 90.0 xyz
      dof rx ry rz
   end
   begin
      id 17
      name RightArm
      direction -1.000000 0.000000 0.000000
      length 10.274218
      axis 0.0 0.0 90.0 xyz
      dof rx ry rz
   end
   begin
      id 18
      name RightForeArm
      direction -1.000000 0.000000 0.000000
      length 8.522147
      axis 0.0 0.0 90.0 xyz
      dof ry rz rx
   end
   begin
      id 19
      name RightHand
      direction 0.000000 0.000000 0.000000
      length 0.000000
      axis 0.0 0.0 90.0 xyz
      dof rx ry rz
   end
   begin
      id 20
      name RightHand_dum1
      direction 0.000000 0.000000 0.000000
      length 0.000000
      axis 0.0 0.0 90.0 xyz
   end
   begin
      id 21
      name RightHand_dum2
      direction -1.000000 0.000000 0.000000
      length 3.937000
      axis 0.0 0.0 90.0 xyz
   end
   begin
      id 22
      name RightHandThumb1
      direction 0.000000 0.000000 1.000000
      length 3.937000
      axis 0.0 0.0 90.0 xyz
      dof rx rz ry
   end
   begin
      id 23
      name LeftUpLeg
      direction 0.000000 -1.000000 0.000000
      length 16.490845
      axis 0.0 0.0 0.0 xyz
      dof rx ry rz
   end
   begin
      id 24
      name LeftLeg
      direction 0.000000 -1.000000 0.000000
      length 14.556576
      axis 0.0 0.0 0.0 xyz
      dof rx ry rz
   end
   begin
      id 25
      name LeftFoot
      direction 0.000000 -0.258819 0.965926
      length 4.831116
      axis 15.0 0.0 0.0 xyz
      dof rx ry rz
   end
   begin
      id 26
      name LeftToeBase
      direction 0.000000 0.000000 1.000000
      length 2.952750
      axis 0.0 0.0 0.0 xyz
      dof rx ry rz
   end
   begin
      id 27
      name RightUpLeg
      direction 0.000000 -1.000000 0.000000
      length 16.490845
      axis 0.0 0.0 0.0 xyz
      dof rx ry rz
   end
   begin
      id 28
      name RightLeg
      direction 0.000000 -1.000000 0.000000
      length 14.556576
      axis 0.0 0.0 0.0 xyz
      dof rx ry rz
   end
   begin
      id 29
      name RightFoot
      direction 0.000000 -0.258819 0.965926
      length 4.831116
      axis 15.0 0.0 0.0 xyz
      dof rx ry rz
   end
   begin
      id 30
      name RightToeBase
      direction 0.000000 0.000000 1.000000
      length 2.952750
      axis 0.0 0.0 0.0 xyz
      dof rx ry rz
   end
:hierarchy
   begin
      root Spine_dum LeftUpLeg_dum RightUpLeg_dum
      Spine_dum Spine
      LeftUpLeg_dum LeftUpLeg
      RightUpLeg_dum RightUpLeg
      Spine Spine_dum1 Spine_dum2 Spine_dum3
      Spine_dum1 Head
      Spine_dum2 LeftShoulder
      Spine_dum3 RightShoulder
      LeftShoulder LeftArm
      LeftArm LeftForeArm
      LeftForeArm LeftHand
      LeftHand LeftHand_dum1 LeftHand_dum2
      LeftHand_dum1 LeftHandThumb1
      RightShoulder RightArm
      RightArm RightForeArm
      RightForeArm RightHand
      RightHand RightHand_dum1 RightHand_dum2
      RightHand_dum1 RightHandThumb1
      LeftUpLeg LeftLeg
      LeftLeg LeftFoot
      LeftFoot LeftToeBase
      RightUpLeg RightLeg
      RightLeg RightFoot
      RightFoot RightToeBase
   end

# File created by Blade
# Date/Time:  Wed Sep 24 20:26:02 2014
# Frame Rate: 120.000 fps
#------------------------------------------------------
:FULLY-SPECIFIED
:DEGREES
42
root -8.877743 32.710074 -3.553207 18.474507 -78.202691 -7.276187
Spine -12.559887 4.568457 -0.126160
Head -9.171431 -4.223180 11.936147
LeftShoulder -16.172426 18.257115 24.680059
LeftArm 18.663241 -27.348431 -33.728983
LeftForeArm 7.961950 0.000000 14.093870
LeftHand -29.340821 -0.000000 1.508417
LeftHandThumb1 -26.253704 0.000000 33.147579
RightShoulder -20.188002 13.151914 -38.595309
RightArm -17.347258 9.370055 33.593775
RightForeArm -28.949879 0.000000 18.379330
RightHand -13.844171 -0.000000 -0.519901
RightHandThumb1 -24.326973 -0.000000 -32.862282
LeftUpLeg -6.421757 3.420798 2.089862
LeftLeg -2.519497 -0.000000 0.000000
LeftFoot -8.892372 2.627402 -16.493377
LeftToeBase 7.003737 -0.000000 -0.000000
RightUpLeg -5.453744 -8.834887 -1.242495
RightLeg 1.720137 -0.000000 -0.000000
RightFoot -10.794030 -8.059540 -1.803962
RightToeBase -0.486061 -0.000000 0.000000
43
root -8.876821 32.710012 -3.550797 18.497000 -78.204687 -7.299143
Spine -12.566897 4.581062 -0.140361
Head -9.131848 -4.209783 11.949313
LeftShoulder -16.168403 18.233879 24.701210
LeftArm 18.667030 -27.336456 -33.731489
LeftForeArm 7.952289 0.000000 14.091556
LeftHand -29.404409 0.000000 1.514117
LeftHandThumb1 -26.253704 0.000000 33.147579
RightShoulder -20.189751 13.161447 -38.580535
RightArm -17.353101 9.366050 33.565765
RightForeArm -29.030499 -0.000000 18.373317
RightHand -13.750425 -0.000000 -0.498147
RightHandThumb1 -24.326973 -0.000000 -32.862282
LeftUpLeg -6.415275 3.405802 2.090116
LeftLeg -2.537974 -0.000000 0.000000
LeftFoot -8.895879 2.632254 -16.474860
LeftToeBase 7.032194 -0.000000 -0.000000
RightUpLeg -5.455566 -8.804898 -1.247133
RightLeg 1.745904 -0.000000 -0.000000
RightFoot -10.812518 -8.005571 -1.800711
RightToeBase -0.428383 -0.000000 0.000000
44
root -8.875667 32.709831 -3.547160 18.507818 -78.209407 -7.313930
Spine -12.562915 4.597698 -0.141039
Head -9.083021 -4.186331 11.935142
LeftShoulder -16.167412 18.215129 24.708662
LeftArm 18.667562 -27.319552 -33.748494
LeftForeArm 7.916470 -0.000000 14.102125
LeftHand -29.418800 -0.000000 1.621244
LeftHandThumb1 -26.253704 0.000000 33.147579
RightShoulder -20.193631 13.168689 -38.571457
RightArm -17.363964 9.357139 33.528139
RightForeArm -29.082031 -0.000000 18.386715
RightHand -13.670807 -0.000000 -0.461841
RightHandThumb1 -24.326973 -0.000000 -32.862282
LeftUpLeg -6.414840 3.421923 2.083581
LeftLeg -2.526353 -0.000000 0.000000
LeftFoot -8.900945 2.638076 -16.480706
LeftToeBase 7.010846 -0.000000 -0.000000
RightUpLeg -5.458070 -8.798640 -1.253979
RightLeg 1.759205 -0.000000 -0.000000
RightFoot -10.837273 -8.000907 -1.773633
RightToeBase -0.337997 -0.000000 0.000000
45
root -8.874925 32.709690 -3.544404 18.548418 -78.216778 -7.354674
Spine -12.571076 4.620949 -0.143632
Head -9.028330 -4.190410 11.903895
LeftShoulder -16.158635 18.224434 24.720665
LeftArm 18.681332 -27.326669 -33.783196
LeftForeArm 7.876677 -0.000000 14.113562
LeftHand -29.480144 -0.000000 1.763908
LeftHandThumb1 -26.253704 0.000000 33.147579
RightShoulder -20.198025 13.163722 -38.558777
RightArm -17.366473 9.349880 33.503574
RightForeArm -29.064248 -0.000000 18.391583
RightHand -13.663043 0.000000 -0.461922
RightHandThumb1 -24.326973 -0.000000 -32.862282
LeftUpLeg -6.411369 3.410693 2.086506
LeftLeg -2.534637 -0.000000 0.000000
LeftFoot -8.906168 2.649646 -16.465880
LeftToeBase 7.025437 -0.000000 -0.000000
RightUpLeg -5.460527 -8.803195 -1.251906
RightLeg 1.754942 -0.000000 -0.000000
RightFoot -10.820130 -7.985202 -1.751857
RightToeBase -0.427234 -0.000000 0.000000
46
root -8.873764 32.709550 -3.542123 18.573755 -78.212726 -7.378614
Spine -12.577707 4.629866 -0.141399
Head -8.966883 -4.186259 11.873629
LeftShoulder -16.161209 18.236146 24.717907
LeftArm 18.714508 -27.337227 -33.816403
LeftForeArm 7.851818 -0.000000 14.110307
LeftHand -29.568792 0.000000 1.938327
LeftHandThumb1 -26.253704 0.000000 33.147579
RightShoulder -20.208251 13.165313 -38.557760
RightArm -17.375228 9.361444 33.484030
RightForeArm -29.045269 -0.000000 18.410428
RightHand -13.644178 -0.000000 -0.483536
RightHandThumb1 -24.326973 -0.000000 -32.862282
LeftUpLeg -6.413329 3.391724 2.089724
LeftLeg -2.535169 -0.000000 0.000000
LeftFoot -8.920725 2.674710 -16.484635
LeftToeBase 7.070487 -0.000000 -0.000000
RightUpLeg -5.464092 -8.818946 -1.249201
RightLeg 1.756566 -0.000000 -0.000000
RightFoot -10.822460 -7.981111 -1.765476
RightToeBase -0.388804 -0.000000 0.000000
47
root -8.873086 32.709290 -3.539645 18.611325 -78.212730 -7.420533
Spine -12.577904 4.643774 -0.131160
Head -8.902825 -4.167618 11.831657
LeftShoulder -16.161725 18.246849 24.715252
LeftArm 18.739452 -27.337939 -33.854765
LeftForeArm 7.867576 -0.000000 14.106211
LeftHand -29.557689 -0.000000 2.106055
LeftHandThumb1 -26.253704 0.000000 33.147579
RightShoulder -20.220340 13.159462 -38.566491
RightArm -17.375291 9.379874 33.484371
RightForeArm -28.935332 -0.000000 18.437170
RightHand -13.823520 -0.000000 -0.468823
RightHandThumb1 -24.326973 -0.000000 -32.862282
LeftUpLeg -6.407376 3.371509 2.096725
LeftLeg -2.537338 -0.000000 0.000000
LeftFoot -8.935757 2.696278 -16.465000
LeftToeBase 7.068843 -0.000000 -0.000000
RightUpLeg -5.462264 -8.863197 -1.240349
RightLeg 1.730487 -0.000000 -0.000000
RightFoot -10.774228 -8.009273 -1.798748
RightToeBase -0.498254 -0.000000 0.000000
48
root -8.871782 32.709162 -3.536643 18.612058 -78.205404 -7.416971
Spine -12.587779 4.642928 -0.129195
Head -8.841744 -4.161568 11.785468
LeftShoulder -16.169138 18.263012 24.714694
LeftArm 18.763797 -27.325440 -33.892539
LeftForeArm 7.913657 -0.000000 14.116806
LeftHand -29.601996 -0.000000 2.220799
LeftHandThumb1 -26.253704 0.000000 33.147579
RightShoulder -20.222999 13.158680 -38.558250
RightArm -17.386844 9.411954 33.445115
RightForeArm -29.007969 0.000000 18.441713
RightHand -13.611145 -0.000000 -0.493184
RightHandThumb1 -24.326973 -0.000000 -32.862282
LeftUpLeg -6.412425 3.347769 2.094140
LeftLeg -2.541837 -0.000000 0.000000
LeftFoot -8.923594 2.712989 -16.451974
LeftToeBase 6.972633 -0.000000 -0.000000
RightUpLeg -5.467730 -8.859275 -1.244862
RightLeg 1.752881 -0.000000 -0.000000
RightFoot -10.800875 -7.961837 -1.791450
RightToeBase -0.441313 -0.000000 0.000000
49
root -8.870597 32.708922 -3.534367 18.625468 -78.203789 -7.428145
Spine -12.595385 4.652389 -0.126666
Head -8.778046 -4.145837 11.742053
LeftShoulder -16.182590 18.302795 24.698736
LeftArm 18.815966 -27.323428 -33.924568
LeftForeArm 7.965034 -0.000000 14.114430
LeftHand -29.601941 -0.000000 2.352494
LeftHandThumb1 -26.253704 0.000000 33.147579
RightShoulder -20.237602 13.156812 -38.561409
RightArm -17.380954 9.419716 33.442249
RightForeArm -28.925142 -0.000000 18.457762
RightHand -13.796288 -0.000000 -0.493437
RightHandThumb1 -24.326973 -0.000000 -32.862282
LeftUpLeg -6.413967 3.340834 2.093900
LeftLeg -2.548760 -0.000000 0.000000
LeftFoot -8.928612 2.696310 -16.469774
LeftToeBase 7.044260 -0.000000 -0.000000
RightUpLeg -5.464516 -8.850329 -1.246314
RightLeg 1.738963 -0.000000 -0.000000
RightFoot -10.784548 -7.968095 -1.794814
RightToeBase -0.462869 -0.000000 0.000000
50
root -8.869507 32.708621 -3.531946 18.616461 -78.199085 -7.413315
Spine -12.606859 4.647201 -0.126434
Head -8.706359 -4.113379 11.682201
LeftShoulder -16.183780 18.307541 24.700907
LeftArm 18.816185 -27.295046 -33.947101
LeftForeArm 8.032690 -0.000000 14.129040
LeftHand -29.634548 -0.000000 2.478982
LeftHandThumb1 -26.253704 0.000000 33.147579
RightShoulder -20.243114 13.169539 -38.569333
RightArm -17.399727 9.441474 33.416725
RightForeArm -29.015503 0.000000 18.457619
RightHand -13.575088 0.000000 -0.507392
RightHandThumb1 -24.326973 -0.000000 -32.862282
LeftUpLeg -6.414917 3.318752 2.091746
LeftLeg -2.558774 -0.000000 0.000000
LeftFoot -8.921801 2.723432 -16.478849
LeftToeBase 7.010619 -0.000000 -0.000000
RightUpLeg -5.473577 -8.865576 -1.250889
RightLeg 1.744687 -0.000000 -0.000000
RightFoot -10.791704 -7.960687 -1.793244
RightToeBase -0.420635 -0.000000 0.000000
51
root -8.867760 32.708699 -3.528642 18.585584 -78.190085 -7.374335
Spine -12.618917 4.640014 -0.129730
Head -8.638463 -4.091469 11.622437
LeftShoulder -16.177746 18.297451 24.685629
LeftArm 18.779024 -27.215344 -33.902873
LeftForeArm 8.018405 0.000000 14.145771
LeftHand -29.728991 -0.000000 2.658925
LeftHandThumb1 -26.253704 0.000000 33.147579
RightShoulder -20.255686 13.167651 -38.576400
RightArm -17.395604 9.455952 33.410770
RightForeArm -29.043682 0.000000 18.454199
RightHand -13.562898 -0.000000 -0.508657
RightHandThumb1 -24.326973 -0.000000 -32.862282
LeftUpLeg -6.401416 3.215682 2.095718
LeftLeg -2.608916 -0.000000 0.000000
LeftFoot -8.907671 2.784574 -16.519106
LeftToeBase 7.022814 -0.000000 -0.000000
RightUpLeg -5.480333 -8.879477 -1.262476
RightLeg 1.747961 -0.000000 -0.000000
RightFoot -10.801546 -7.938605 -1.771800
RightToeBase -0.433876 -0.000000 0.000000
52
root -8.867358 32.708557 -3.528000 18.599966 -78.185199 -7.385844
Spine -12.629950 4.639445 -0.130297
Head -8.561455 -4.069783 11.556387
LeftShoulder -16.193003 18.327478 24.675553
LeftArm 18.814960 -27.183840 -33.909963
LeftForeArm 8.016898 0.000000 14.136978
LeftHand -29.733457 -0.000000 2.725957
LeftHandThumb1 -26.253704 0.000000 33.147579
RightShoulder -20.267902 13.160618 -38.581897
RightArm -17.389868 9.454847 33.416703
RightForeArm -29.022779 0.000000 18.445258
RightHand -13.568396 -0.000000 -0.525365
RightHandThumb1 -24.326973 -0.000000 -32.862282
LeftUpLeg -6.421720 3.297238 2.085482
LeftLeg -2.576786 -0.000000 0.000000
LeftFoot -8.916098 2.725432 -16.463454
LeftToeBase 7.052629 -0.000000 -0.000000
RightUpLeg -5.478985 -8.877946 -1.258439
RightLeg 1.736998 -0.000000 -0.000000
RightFoot -10.798602 -7.953172 -1.762655
RightToeBase -0.393731 -0.000000 0.000000
53
root -8.866549 32.708768 -3.524998 18.540173 -78.176579 -7.323811
Spine -12.638811 4.620728 -0.132643
Head -8.480440 -4.048391 11.471203
LeftShoulder -16.190520 18.324137 24.664114
LeftArm 18.781180 -27.133880 -33.888385
LeftForeArm 7.980667 -0.000000 14.143525
LeftHand -29.737572 -0.000000 2.751082
LeftHandThumb1 -26.253704 0.000000 33.147579
RightShoulder -20.264145 13.155918 -38.595457
RightArm -17.398340 9.469061 33.422752
RightForeArm -29.024804 0.000000 18.444766
RightHand -13.541735 -0.000000 -0.517360
RightHandThumb1 -24.326973 -0.000000 -32.862282
LeftUpLeg -6.405299 3.240294 2.080133
LeftLeg -2.614183 -0.000000 0.000000
LeftFoot -8.890916 2.757701 -16.506766
LeftToeBase 7.035539 -0.000000 -0.000000
RightUpLeg -5.480495 -8.908938 -1.270684
RightLeg 1.720050 -0.000000 -0.000000
RightFoot -10.778133 -8.010035 -1.802147
RightToeBase -0.465435 -0.000000 0.000000
